<svg width="239" height="238" viewBox="0 0 239 238" fill="none" xmlns="http://www.w3.org/2000/svg">
<path fill-rule="evenodd" clip-rule="evenodd" d="M119.992 151.369C119.828 151.369 119.664 151.369 119.5 151.369C119.338 151.369 119.175 151.369 119.013 151.369C119.175 151.369 119.337 151.369 119.499 151.369C119.663 151.369 119.828 151.369 119.992 151.369ZM216.925 119.05C216.916 101.206 173.3 86.7419 119.499 86.7419C65.6999 86.7419 22.0856 101.205 22.073 119.048C8.60265 106.791 0.700195 91.8751 0.700195 75.7846C0.700195 34.0403 53.8888 0.199829 119.5 0.199829C185.112 0.199829 238.3 34.0403 238.3 75.7846C238.3 91.876 230.397 106.793 216.925 119.05Z" fill="#41438A"/>
<path d="M119.5 151.37C53.7858 151.37 0.700195 117.603 0.700195 75.6731V162.327C0.700195 204.061 53.7858 237.8 119.5 237.8C185.215 237.8 238.188 204.061 238.188 162.327V75.6731C238.188 117.603 185.103 151.37 119.5 151.37Z" fill="#5562A5"/>
</svg>
